# xmcd
#
# Track frame offsets:
#	150
#	18242
#	33657
#	49770
#	90138
#	131895
#	157349
#	181160
#	199230
#	221926
#	241466
#	272506
#	301610
#
# Disc length: 4170 seconds
#
# Revision: 1
# Processed by: cddbd v1.5.1PL0 Copyright (c) Steve Scherf et al.
# Submitted via: audiograbber 1.81.03
#
DISCID=b210480d
DTITLE=Kim Wilson - Smokin' Joint
DYEAR=2001
DGENRE=Blues
TTITLE0=Ain't Gonna Do It
TTITLE1=Good Time Charlie
TTITLE2=Oh Baby
TTITLE3=Early In The Morning
TTITLE4=Got To Let You Go
TTITLE5=Learn To Treat Me Right
TTITLE6=Smokin' Joint
TTITLE7=I Stay In The Mood
TTITLE8=Telephone Blues
TTITLE9=High And Lonesome
TTITLE10=I Can Tell
TTITLE11=Tomorrow Night
TTITLE12=The Lighthouse Is Gone
EXTD=
EXTT0=
EXTT1=
EXTT2=
EXTT3=
EXTT4=
EXTT5=
EXTT6=
EXTT7=
EXTT8=
EXTT9=
EXTT10=
EXTT11=
EXTT12=
PLAYORDER=
